<svg xmlns="http://www.w3.org/2000/svg" version="1.1" xmlns:xlink="http://www.w3.org/1999/xlink" xmlns:svgjs="http://svgjs.dev/svgjs" width="2000" height="212" viewBox="0 0 2000 212"><g transform="matrix(1,0,0,1,-1.2121212121212466,-0.531389960962656)"><svg viewBox="0 0 396 42" data-background-color="#000000" preserveAspectRatio="xMidYMid meet" height="212" width="2000" xmlns="http://www.w3.org/2000/svg" xmlns:xlink="http://www.w3.org/1999/xlink"><g id="tight-bounds" transform="matrix(1,0,0,1,0.2400000000000091,0.1052753696246782)"><svg viewBox="0 0 395.52 41.78944926075064" height="41.78944926075064" width="395.52"><g><svg viewBox="0 0 487.68634132590427 51.52746666666665" height="41.78944926075064" width="395.52"><g><rect width="4.6236817117866655" height="51.52746666666665" x="75.43878078745095" y="0" fill="#000000" opacity="1" stroke-width="0" stroke="transparent" fill-opacity="1" class="rect-qz-0" data-fill-palette-color="primary" rx="1%" id="qz-0" data-palette-color="#ffffff"></rect></g><g transform="matrix(1,0,0,1,92.16634132590427,0.1281777777777755)"><svg viewBox="0 0 395.52 51.2711111111111" height="51.2711111111111" width="395.52"><g id="textblocktransform"><svg viewBox="0 0 395.52 51.2711111111111" height="51.2711111111111" width="395.52" id="textblock"><g><svg viewBox="0 0 395.52 51.2711111111111" height="51.2711111111111" width="395.52"><g transform="matrix(1,0,0,1,0,0)"><svg width="395.52" viewBox="4 -36.3 286.18 37.099999999999994" height="51.2711111111111" data-palette-color="#ffffff"><path d="M20.55-4.2L33.05-34.1 37.25-34.1 37.25 0 33.55 0 33.55-27.25 22.15 0 18.65 0 7.75-27.15 7.75 0 4 0 4-34.1 8.6-34.1 20.55-4.2ZM62.75-23.4L66.15-23.4 66.15 0 62.75 0 62.75-3.45Q61.3-1.45 59.2-0.33 57.1 0.8 54.6 0.8L54.6 0.8Q51.25 0.8 48.6-0.8 45.95-2.4 44.45-5.25 42.95-8.1 42.95-11.75L42.95-11.75Q42.95-15.35 44.42-18.18 45.9-21 48.52-22.6 51.15-24.2 54.5-24.2L54.5-24.2Q57.05-24.2 59.17-23.08 61.3-21.95 62.75-19.9L62.75-19.9 62.75-23.4ZM54.5-2.3Q56.9-2.3 58.77-3.5 60.65-4.7 61.7-6.85 62.75-9 62.75-11.7L62.75-11.7Q62.75-14.4 61.7-16.55 60.65-18.7 58.77-19.9 56.9-21.1 54.5-21.1L54.5-21.1Q52.15-21.1 50.3-19.9 48.45-18.7 47.4-16.57 46.35-14.45 46.35-11.75L46.35-11.75Q46.35-9 47.4-6.85 48.45-4.7 50.3-3.5 52.15-2.3 54.5-2.3L54.5-2.3ZM83.95-24.2Q85.15-24.2 86.25-23.85L86.25-23.85 86.25-20.75Q85.2-21.25 83.95-21.25L83.95-21.25Q81.8-21.25 79.95-20.05 78.09-18.85 76.97-16.57 75.84-14.3 75.84-11.2L75.84-11.2 75.84 0 72.45 0 72.45-23.4 75.84-23.4 75.84-18.7Q77.2-21.3 79.27-22.75 81.34-24.2 83.95-24.2L83.95-24.2ZM107.64 0L103.84 0 95.64-12.05 92.79-9.3 92.79 0 89.39 0 89.39-36.3 92.79-36.3 92.79-13.6 103.04-23.4 107.44-23.4 97.99-14.3 107.64 0ZM121.29-24.2Q124.44-24.2 126.99-22.65 129.54-21.1 130.99-18.43 132.44-15.75 132.44-12.45L132.44-12.45Q132.44-11.5 132.39-11L132.39-11 113.14-11Q113.34-7.4 115.49-4.85 117.64-2.3 121.34-2.3L121.34-2.3Q124.34-2.3 126.32-3.43 128.29-4.55 129.49-6.55L129.49-6.55 132.19-4.75Q130.54-2.15 127.84-0.68 125.14 0.8 121.44 0.8L121.44 0.8Q118.04 0.8 115.39-0.8 112.74-2.4 111.24-5.25 109.74-8.1 109.74-11.7L109.74-11.7Q109.74-15.3 111.22-18.15 112.69-21 115.32-22.6 117.94-24.2 121.29-24.2L121.29-24.2ZM113.34-13.8L129.04-13.8Q128.54-17.45 126.59-19.28 124.64-21.1 121.29-21.1L121.29-21.1Q118.04-21.1 115.97-19.03 113.89-16.95 113.34-13.8L113.34-13.8ZM142.09 0L138.69 0 138.69-20.3 134.69-20.3 134.69-23.4 138.69-23.4 138.69-31.15 142.09-31.15 142.09-23.4 147.49-23.4 147.49-20.3 142.09-20.3 142.09 0ZM168.59-4.2L181.09-34.1 185.29-34.1 185.29 0 181.59 0 181.59-27.25 170.19 0 166.69 0 155.79-27.15 155.79 0 152.04 0 152.04-34.1 156.64-34.1 168.59-4.2ZM209.58-23.4L212.98-23.4 212.98 0 209.58 0 209.58-3.9Q208.38-1.65 206.41-0.43 204.43 0.8 201.83 0.8L201.83 0.8Q199.38 0.8 197.31-0.2 195.23-1.2 194.01-3.15 192.78-5.1 192.78-7.75L192.78-7.75 192.78-23.4 196.18-23.4 196.18-9.25Q196.18-2.3 202.38-2.3L202.38-2.3Q205.98-2.3 207.78-4.85 209.58-7.4 209.58-11.7L209.58-11.7 209.58-23.4ZM230.43-24.2Q232.88-24.2 234.96-23.2 237.03-22.2 238.26-20.25 239.48-18.3 239.48-15.65L239.48-15.65 239.48 0 236.08 0 236.08-14.15Q236.08-21.1 229.88-21.1L229.88-21.1Q226.28-21.1 224.48-18.55 222.68-16 222.68-11.7L222.68-11.7 222.68 0 219.28 0 219.28-23.4 222.68-23.4 222.68-19.5Q223.88-21.75 225.86-22.98 227.83-24.2 230.43-24.2L230.43-24.2ZM256.28 0.8Q252.88 0.8 250.23-0.8 247.58-2.4 246.08-5.25 244.58-8.1 244.58-11.7L244.58-11.7Q244.58-15.3 246.05-18.15 247.53-21 250.18-22.6 252.83-24.2 256.18-24.2L256.18-24.2Q259.03-24.2 261.15-22.98 263.28-21.75 265.03-19.5L265.03-19.5 262.53-17.55Q260.08-21.1 256.18-21.1L256.18-21.1Q253.83-21.1 251.95-19.9 250.08-18.7 249.03-16.55 247.98-14.4 247.98-11.7L247.98-11.7Q247.98-9 249.03-6.85 250.08-4.7 251.95-3.5 253.83-2.3 256.18-2.3L256.18-2.3Q258.58-2.3 260.13-3.13 261.68-3.95 262.93-5.55L262.93-5.55 265.58-3.7Q263.93-1.65 261.5-0.43 259.08 0.8 256.28 0.8L256.28 0.8ZM281.13-24.2Q283.58-24.2 285.65-23.2 287.73-22.2 288.95-20.25 290.18-18.3 290.18-15.65L290.18-15.65 290.18 0 286.78 0 286.78-14.15Q286.78-21.1 280.58-21.1L280.58-21.1Q276.98-21.1 275.18-18.55 273.38-16 273.38-11.7L273.38-11.7 273.38 0 269.98 0 269.98-36.3 273.38-36.3 273.38-19.5Q274.58-21.75 276.55-22.98 278.53-24.2 281.13-24.2L281.13-24.2Z" opacity="1" transform="matrix(1,0,0,1,0,0)" fill="#000000" class="wordmark-text-0" data-fill-palette-color="primary" id="text-0"></path></svg></g></svg></g></svg></g></svg></g><g transform="matrix(1,0,0,1,0,0.1281777777777755)"><svg viewBox="0 0 63.33490196078429 51.2711111111111" height="51.2711111111111" width="63.33490196078429"><g><svg xmlns="http://www.w3.org/2000/svg" xmlns:xlink="http://www.w3.org/1999/xlink" version="1.1" x="0" y="0" viewBox="8 16 84 68" style="enable-background:new 0 0 100 100;" xml:space="preserve" height="51.2711111111111" width="63.33490196078429" class="icon-icon-0" data-fill-palette-color="accent" id="icon-0"><path d="M86 84H14c-1.1 0-2-0.9-2-2V48.2c-3.9-2.3-4-6.1-4-6.2V18c0-1.1 0.9-2 2-2h80c1.1 0 2 0.9 2 2v24c0 0.1-0.1 3.8-4 6.2V82C88 83.1 87.1 84 86 84zM16 80h68V68H16V80zM16 64h68V49.6c-1.2 0.2-2.5 0.4-4 0.4-5.4 0-8.4-1.6-10-3.4-1.6 1.8-4.6 3.4-10 3.4s-8.4-1.6-10-3.4c-1.6 1.8-4.6 3.4-10 3.4s-8.4-1.6-10-3.4c-1.6 1.8-4.6 3.4-10 3.4-1.5 0-2.8-0.1-4-0.4V64zM72 42c0 0.5 0.5 4 8 4 7.6 0 8-3.6 8-4V20H72V42zM52 42c0 0.5 0.5 4 8 4s8-3.6 8-4V20H52V42zM32 42c0 0.5 0.5 4 8 4s8-3.6 8-4V20H32V42zM12 42c0 0.5 0.5 4 8 4s8-3.6 8-4V20H12V42z" fill="#000000" data-fill-palette-color="accent"></path></svg></g></svg></g></svg></g><defs></defs></svg><rect width="395.52" height="41.78944926075064" fill="none" stroke="none" visibility="hidden"></rect></g></svg></g></svg>